<svg width="32" height="32" viewBox="0 0 32 32" fill="none" xmlns="http://www.w3.org/2000/svg">
<path d="M22.3121 18.3813C22.9683 19.2972 23.4172 20.3254 23.659 21.44C23.7885 22.0621 23.8576 22.6497 23.8489 23.2286C23.8489 23.8507 23.7799 24.4124 23.6331 24.9308C23.1881 26.5212 22.1087 27.7677 20.4362 28.6517C12.548 32.9901 5.4767 30.5771 2.54993 27.3632C1.92578 26.6778 1.48395 25.8677 1.22036 24.9308C0.93545 23.9112 0.926818 22.7361 1.19446 21.44C1.4362 20.3341 1.88514 19.3058 2.54993 18.3813L7.70416 11.2184C6.96167 11.0024 6.40913 10.3284 6.40913 9.51621C6.40913 8.5744 7.14298 7.81404 8.06677 7.75356L5.23496 2.53472C5.15726 2.4224 5.13136 2.24959 5.17453 2.08542C5.2177 1.92125 5.32993 1.783 5.4767 1.6966C6.02925 1.3769 7.98907 0.435094 9.67261 1.84349L11.2267 3.47653C11.667 3.93448 12.4785 3.89992 12.8843 3.39877C13.1174 3.09635 13.1951 2.81122 13.1519 2.5088L13.0656 1.81757C13.0397 1.61884 13.1606 1.42011 13.3591 1.35962C15.6211 0.659746 17.5119 0.979442 18.9796 2.33599C19.1868 2.47424 19.2645 2.81986 19.1264 3.09635L16.9421 7.77948C17.7882 7.90909 18.4443 8.64353 18.4443 9.52485C18.4443 10.3284 17.9004 11.011 17.1579 11.2184L22.3121 18.3813Z" stroke="#1F4497" stroke-width="2"/>
<path d="M17.1589 11.2184C17.9014 11.011 18.4453 10.3284 18.4453 9.52484C18.4453 8.64351 17.7892 7.90907 16.9431 7.77947M8.0678 7.75354C7.14401 7.81403 6.41016 8.57439 6.41016 9.5162C6.41016 10.3284 6.9627 11.0024 7.70519 11.2184M16.9431 7.7449H8.0678M7.70519 11.2961H17.1589" stroke="#1F4497" stroke-width="2"/>
<path d="M14.2158 19.6619C14.2158 18.8921 13.5071 18.268 12.633 18.268C11.7588 18.268 11.0501 18.8921 11.0501 19.6619C11.0501 20.4317 11.4818 20.8566 12.633 20.8566C13.7841 20.8566 14.3597 21.2549 14.3597 22.2505C14.3597 23.2461 13.5866 23.6443 12.633 23.6443C11.6793 23.6443 10.9062 23.0203 10.9062 22.2505" stroke="#3CACE4" stroke-width="2" stroke-linecap="round" stroke-linejoin="round"/>
<path d="M12.6328 17.5V18.268M12.6328 24.4124V23.6443" stroke="#3CACE4" stroke-width="2" stroke-linecap="round" stroke-linejoin="round"/>
<circle cx="12.5815" cy="20.9037" r="5.99551" stroke="#3CACE4" stroke-width="2"/>
</svg>
