<svg width="32" height="32" viewBox="0 0 32 32" fill="none" xmlns="http://www.w3.org/2000/svg">
<g clip-path="url(#clip0_438_330)">
<path d="M2.05078 21.7936L5.36255 9.19095L8.72278 22.2281" stroke="#1F4497" stroke-width="1.8" stroke-linejoin="round"/>
<path d="M23.3262 22.2764L26.6379 9.19095L30.0466 22.711" stroke="#1F4497" stroke-width="1.8" stroke-linejoin="round"/>
<path d="M9.72367 21.9867C9.72367 22.9041 7.78508 24.7213 5.36184 24.7213C2.93859 24.7213 1 22.9041 1 21.9867C1 21.0693 9.72367 21.0693 9.72367 21.9867Z" stroke="#3CACE4" stroke-width="1.8" stroke-linejoin="round"/>
<path d="M31.001 22.4695C31.001 23.387 29.0624 25.2041 26.6392 25.2041C24.2159 25.2041 22.2773 23.387 22.2773 22.4695C22.3258 21.5521 31.001 21.5521 31.001 22.4695Z" stroke="#3CACE4" stroke-width="1.8" stroke-linejoin="round"/>
<path d="M26.6379 5.34573H17.9465V3.84886C17.9465 3.31772 16.5087 1 15.9756 1C15.4425 1 14.0047 3.31772 14.0047 3.84886V5.34573H5.31332C4.48942 5.34573 3.85938 6.96975 3.85938 7.74232C3.85938 8.51489 4.48942 9.14261 5.31332 9.14261C6.13722 9.14261 6.76727 8.51489 6.76727 7.74232C6.76727 7.64575 9.88517 9.57718 13.9562 9.67375V25.3184C11.6784 25.4149 10.9352 26.2358 10.9352 26.8635C10.9352 26.9601 10.9837 27.1049 11.0806 27.2015H9.23897C8.85126 27.2015 8.56047 27.4912 8.56047 27.8292V30.3723C8.56047 30.7103 8.85126 31 9.23897 31H11.226C11.6138 31 11.9045 30.7103 11.9045 30.3723V30.0343H19.8528V30.3723C19.8528 30.7103 20.1436 31 20.5313 31H22.5183C22.9061 31 23.1968 30.7103 23.1968 30.3723V27.8292C23.1968 27.4912 22.9061 27.2015 22.5183 27.2015H20.6767C20.7736 27.1049 20.8221 27.0084 20.8221 26.8635C20.8221 26.2358 20.0789 25.4149 17.8011 25.3184V9.67375C21.9206 9.62547 24.99 7.69403 24.99 7.74232C24.99 8.51489 25.6201 9.14261 26.444 9.14261C27.2679 9.14261 27.8979 8.51489 27.8979 7.74232C28.0918 6.96975 27.4618 5.34573 26.6379 5.34573Z" stroke="#1F4497" stroke-width="1.8" stroke-linejoin="round"/>
</g>
<defs>
<clipPath id="clip0_438_330">
<rect width="32" height="32" fill="white"/>
</clipPath>
</defs>
</svg>
