<svg width="277" height="50" viewBox="0 0 277 50" fill="none" xmlns="http://www.w3.org/2000/svg">
<path d="M32.533 43.1519C33.0581 43.1519 33.4808 43.2096 33.801 43.325C34.1276 43.434 34.3646 43.6296 34.5119 43.9117C34.6592 44.1874 34.7328 44.5753 34.7328 45.0755C34.7328 45.4281 34.6912 45.7231 34.6079 45.9603C34.5247 46.1975 34.3934 46.3835 34.2141 46.5181C34.0412 46.6528 33.8042 46.7393 33.5032 46.7778V46.8259C33.6121 46.8515 33.721 46.9028 33.8298 46.9798C33.9387 47.0567 34.0412 47.1625 34.1372 47.2972C34.2333 47.4254 34.3037 47.5889 34.3486 47.7877L34.973 49.8747H33.9547L33.3783 47.8069C33.3015 47.5633 33.1958 47.3901 33.0613 47.2876C32.9268 47.185 32.7507 47.1337 32.533 47.1337C32.1295 47.1337 31.7837 47.1337 31.4955 47.1337C31.2073 47.1273 30.964 47.1208 30.7654 47.1144C30.5733 47.108 30.4164 47.1048 30.2947 47.1048L30.3236 46.3354H32.5138C32.8276 46.329 33.0741 46.2937 33.2535 46.2296C33.4328 46.1591 33.5609 46.0372 33.6377 45.8641C33.721 45.691 33.7626 45.4473 33.7626 45.1332C33.7626 44.819 33.721 44.5785 33.6377 44.4118C33.5609 44.2387 33.4328 44.1201 33.2535 44.056C33.0741 43.9854 32.8276 43.9502 32.5138 43.9502C31.9758 43.9502 31.5115 43.9534 31.1209 43.9598C30.7302 43.9662 30.4676 43.9694 30.3332 43.9694L30.1987 43.2385C30.442 43.2128 30.6726 43.1936 30.8903 43.1808C31.1081 43.1679 31.345 43.1615 31.6012 43.1615C31.8638 43.1551 32.1744 43.1519 32.533 43.1519ZM31.1497 43.2385V49.8747H30.1987V43.2385H31.1497Z" fill="white"/>
<path d="M38.2972 43.2288C38.6174 43.2288 38.944 43.2288 39.277 43.2288C39.6101 43.2288 39.9367 43.2353 40.2569 43.2481C40.5835 43.2545 40.8941 43.2673 41.1887 43.2865L41.1503 44.0271H38.5085C38.3164 44.0271 38.1755 44.0752 38.0859 44.1714C37.9962 44.2676 37.9514 44.4215 37.9514 44.633V48.4802C37.9514 48.6918 37.9962 48.8488 38.0859 48.9514C38.1755 49.0476 38.3164 49.0957 38.5085 49.0957H41.1503L41.1887 49.8267C40.8941 49.8459 40.5835 49.8587 40.2569 49.8651C39.9367 49.8715 39.6101 49.8747 39.277 49.8747C38.944 49.8812 38.6174 49.8844 38.2972 49.8844C37.9001 49.8844 37.5831 49.7786 37.3462 49.567C37.1156 49.349 36.9971 49.0604 36.9907 48.7014V44.4118C36.9971 44.0464 37.1156 43.7578 37.3462 43.5462C37.5831 43.3346 37.9001 43.2288 38.2972 43.2288ZM37.1637 46.0084H40.7756V46.749H37.1637V46.0084Z" fill="white"/>
<path d="M44.6131 43.2288C44.9269 43.2288 45.2439 43.232 45.5641 43.2385C45.8843 43.2385 46.2013 43.2417 46.5151 43.2481C46.8289 43.2545 47.1267 43.2705 47.4085 43.2962L47.3605 44.0271H44.8917C44.6739 44.0271 44.5138 44.0752 44.4114 44.1714C44.3153 44.2676 44.2673 44.4215 44.2673 44.633V49.8747H43.3066V44.4503C43.3066 44.0656 43.4251 43.7674 43.6621 43.5558C43.899 43.3378 44.216 43.2288 44.6131 43.2288ZM43.4699 46.1046H46.9954V46.8548H43.4699V46.1046Z" fill="white"/>
<path d="M50.3576 43.2385V49.8747H49.3969V43.2385H50.3576Z" fill="white"/>
<path d="M58.0193 43.2385V49.4997C58.0193 49.7497 57.9008 49.8747 57.6639 49.8747H56.8377C56.7289 49.8747 56.6424 49.8491 56.5784 49.7978C56.5207 49.7465 56.4695 49.6728 56.4247 49.5766L54.2536 45.0947C54.196 44.9665 54.1288 44.8222 54.0519 44.6619C53.9751 44.4952 53.9174 44.3413 53.879 44.2002H53.7349C53.7477 44.3477 53.7573 44.4984 53.7637 44.6523C53.7701 44.7998 53.7733 44.9504 53.7733 45.1043V49.8747H52.8319V43.6136C52.8319 43.3635 52.9536 43.2385 53.197 43.2385H53.9943C54.1031 43.2385 54.1896 43.2641 54.2536 43.3154C54.3177 43.3667 54.3721 43.4404 54.4169 43.5366L56.5111 47.9031C56.5816 48.0377 56.6552 48.1916 56.7321 48.3647C56.8153 48.5379 56.8954 48.7078 56.9722 48.8745H57.1259C57.1131 48.7014 57.1035 48.5315 57.0971 48.3647C57.0907 48.1916 57.0875 48.0217 57.0875 47.855V43.2385H58.0193Z" fill="white"/>
<path d="M61.7466 43.2288C62.0668 43.2288 62.3934 43.2288 62.7264 43.2288C63.0595 43.2288 63.3861 43.2353 63.7063 43.2481C64.0329 43.2545 64.3435 43.2673 64.6381 43.2865L64.5997 44.0271H61.9579C61.7658 44.0271 61.6249 44.0752 61.5353 44.1714C61.4456 44.2676 61.4008 44.4215 61.4008 44.633V48.4802C61.4008 48.6918 61.4456 48.8488 61.5353 48.9514C61.6249 49.0476 61.7658 49.0957 61.9579 49.0957H64.5997L64.6381 49.8267C64.3435 49.8459 64.0329 49.8587 63.7063 49.8651C63.3861 49.8715 63.0595 49.8747 62.7264 49.8747C62.3934 49.8812 62.0668 49.8844 61.7466 49.8844C61.3495 49.8844 61.0325 49.7786 60.7956 49.567C60.565 49.349 60.4466 49.0604 60.4401 48.7014V44.4118C60.4466 44.0464 60.565 43.7578 60.7956 43.5462C61.0325 43.3346 61.3495 43.2288 61.7466 43.2288ZM60.6131 46.0084H64.225V46.749H60.6131V46.0084Z" fill="white"/>
<path d="M69.1768 43.1519C69.6635 43.1519 70.0734 43.2096 70.4064 43.325C70.7458 43.4404 71.018 43.6296 71.2229 43.8925C71.4279 44.1489 71.5752 44.4984 71.6648 44.9408C71.7609 45.3768 71.8089 45.9154 71.8089 46.5566C71.8089 47.1978 71.7609 47.7396 71.6648 48.182C71.5752 48.618 71.4279 48.9675 71.2229 49.2304C71.018 49.4868 70.7458 49.6728 70.4064 49.7882C70.0734 49.9036 69.6635 49.9613 69.1768 49.9613C68.7157 49.9613 68.2866 49.9517 67.8896 49.9325C67.4989 49.9196 67.1275 49.9004 66.7752 49.8747L67.1787 49.1053C67.4477 49.1181 67.7455 49.131 68.0721 49.1438C68.4051 49.1502 68.7733 49.1534 69.1768 49.1534C69.5867 49.1534 69.9101 49.0733 70.147 48.913C70.384 48.7527 70.5505 48.4866 70.6466 48.1147C70.749 47.7364 70.8003 47.217 70.8003 46.5566C70.8003 45.8962 70.749 45.38 70.6466 45.0081C70.5505 44.6298 70.384 44.3605 70.147 44.2002C69.9101 44.0335 69.5867 43.9502 69.1768 43.9502C68.7798 43.9502 68.4243 43.9534 68.1105 43.9598C67.7967 43.9662 67.4893 43.9726 67.1883 43.979L66.7752 43.2385C67.1275 43.2128 67.4989 43.1936 67.8896 43.1808C68.2866 43.1615 68.7157 43.1519 69.1768 43.1519ZM67.7359 43.2385V49.8747H66.7752V43.2385H67.7359Z" fill="white"/>
<path d="M78.3284 43.2288C78.6422 43.2288 78.9592 43.232 79.2794 43.2385C79.5997 43.2385 79.9167 43.2417 80.2305 43.2481C80.5443 43.2545 80.8421 43.2705 81.1238 43.2962L81.0758 44.0271H78.607C78.3893 44.0271 78.2292 44.0752 78.1267 44.1714C78.0306 44.2676 77.9826 44.4215 77.9826 44.633V49.8747H77.022V44.4503C77.022 44.0656 77.1404 43.7674 77.3774 43.5558C77.6144 43.3378 77.9314 43.2288 78.3284 43.2288ZM77.1853 46.1046H80.7108V46.8548H77.1853V46.1046Z" fill="white"/>
<path d="M84.0729 43.2385V49.8747H83.1123V43.2385H84.0729Z" fill="white"/>
<path d="M91.7346 43.2385V49.4997C91.7346 49.7497 91.6162 49.8747 91.3792 49.8747H90.5531C90.4442 49.8747 90.3577 49.8491 90.2937 49.7978C90.2361 49.7465 90.1848 49.6728 90.14 49.5766L87.969 45.0947C87.9114 44.9665 87.8441 44.8222 87.7673 44.6619C87.6904 44.4952 87.6328 44.3413 87.5943 44.2002H87.4502C87.4631 44.3477 87.4727 44.4984 87.4791 44.6523C87.4855 44.7998 87.4887 44.9504 87.4887 45.1043V49.8747H86.5473V43.6136C86.5473 43.3635 86.6689 43.2385 86.9123 43.2385H87.7096C87.8185 43.2385 87.9049 43.2641 87.969 43.3154C88.033 43.3667 88.0875 43.4404 88.1323 43.5366L90.2265 47.9031C90.2969 48.0377 90.3706 48.1916 90.4474 48.3647C90.5307 48.5379 90.6107 48.7078 90.6876 48.8745H90.8413C90.8284 48.7014 90.8188 48.5315 90.8124 48.3647C90.806 48.1916 90.8028 48.0217 90.8028 47.855V43.2385H91.7346Z" fill="white"/>
<path d="M95.1737 43.2385V49.8747H94.2131V43.2385H95.1737Z" fill="white"/>
<path d="M99.5502 43.123C99.8704 43.1295 100.2 43.1455 100.54 43.1711C100.885 43.1968 101.228 43.2481 101.567 43.325L101.5 44.0079C101.225 43.9951 100.914 43.9854 100.568 43.979C100.229 43.9726 99.8992 43.9694 99.579 43.9694C99.3548 43.9694 99.1627 43.9758 99.0026 43.9886C98.8425 44.0015 98.7112 44.0367 98.6087 44.0944C98.5063 44.1522 98.4294 44.2451 98.3782 44.3734C98.3334 44.5016 98.3109 44.6779 98.3109 44.9023C98.3109 45.2422 98.375 45.4826 98.5031 45.6237C98.6312 45.7583 98.8393 45.8609 99.1275 45.9314L100.463 46.2873C100.975 46.4155 101.327 46.6335 101.519 46.9413C101.712 47.2427 101.808 47.6498 101.808 48.1628C101.808 48.5475 101.763 48.8585 101.673 49.0957C101.59 49.3329 101.455 49.5157 101.27 49.6439C101.09 49.7722 100.857 49.8619 100.568 49.9132C100.28 49.9645 99.9376 49.9902 99.5405 49.9902C99.3228 49.9902 99.0346 49.9805 98.676 49.9613C98.3173 49.9421 97.9043 49.8876 97.4368 49.7978L97.504 49.0957C97.8819 49.1085 98.1893 49.1213 98.4262 49.1342C98.6696 49.1406 98.8777 49.1438 99.0506 49.1438C99.2235 49.1438 99.3965 49.1438 99.5694 49.1438C99.8896 49.1438 100.143 49.1214 100.328 49.0765C100.514 49.0252 100.645 48.929 100.722 48.7879C100.799 48.6405 100.837 48.4289 100.837 48.1532C100.837 47.9159 100.809 47.73 100.751 47.5953C100.7 47.4607 100.613 47.3613 100.492 47.2972C100.376 47.2266 100.226 47.1689 100.04 47.1241L98.6664 46.749C98.1861 46.6143 97.8466 46.3963 97.6481 46.0949C97.4496 45.7936 97.3503 45.3928 97.3503 44.8927C97.3503 44.508 97.3919 44.197 97.4752 43.9598C97.5649 43.7226 97.6993 43.5462 97.8787 43.4308C98.058 43.309 98.2853 43.2288 98.5607 43.1904C98.8361 43.1455 99.1659 43.123 99.5502 43.123Z" fill="white"/>
<path d="M104.914 43.2385V49.8747H103.954V43.2385H104.914ZM107.94 45.9314V46.7297H104.837V45.9314H107.94ZM108.805 43.2385V49.8747H107.835V43.2385H108.805Z" fill="white"/>
<path d="M112.521 43.2288C112.842 43.2288 113.168 43.2288 113.501 43.2288C113.834 43.2288 114.161 43.2353 114.481 43.2481C114.808 43.2545 115.118 43.2673 115.413 43.2865L115.374 44.0271H112.733C112.541 44.0271 112.4 44.0752 112.31 44.1714C112.22 44.2676 112.175 44.4215 112.175 44.633V48.4802C112.175 48.6918 112.22 48.8488 112.31 48.9514C112.4 49.0476 112.541 49.0957 112.733 49.0957H115.374L115.413 49.8267C115.118 49.8459 114.808 49.8587 114.481 49.8651C114.161 49.8715 113.834 49.8747 113.501 49.8747C113.168 49.8812 112.842 49.8844 112.521 49.8844C112.124 49.8844 111.807 49.7786 111.57 49.567C111.34 49.349 111.221 49.0604 111.215 48.7014V44.4118C111.221 44.0464 111.34 43.7578 111.57 43.5462C111.807 43.3346 112.124 43.2288 112.521 43.2288ZM111.388 46.0084H115V46.749H111.388V46.0084Z" fill="white"/>
<path d="M119.452 43.123C119.772 43.1295 120.102 43.1455 120.441 43.1711C120.787 43.1968 121.13 43.2481 121.469 43.325L121.402 44.0079C121.127 43.9951 120.816 43.9854 120.47 43.979C120.131 43.9726 119.801 43.9694 119.481 43.9694C119.257 43.9694 119.065 43.9758 118.904 43.9886C118.744 44.0015 118.613 44.0367 118.511 44.0944C118.408 44.1522 118.331 44.2451 118.28 44.3734C118.235 44.5016 118.213 44.6779 118.213 44.9023C118.213 45.2422 118.277 45.4826 118.405 45.6237C118.533 45.7583 118.741 45.8609 119.029 45.9314L120.365 46.2873C120.877 46.4155 121.229 46.6335 121.421 46.9413C121.613 47.2427 121.709 47.6498 121.709 48.1628C121.709 48.5475 121.665 48.8585 121.575 49.0957C121.492 49.3329 121.357 49.5157 121.172 49.6439C120.992 49.7722 120.758 49.8619 120.47 49.9132C120.182 49.9645 119.839 49.9902 119.442 49.9902C119.225 49.9902 118.936 49.9805 118.578 49.9613C118.219 49.9421 117.806 49.8876 117.339 49.7978L117.406 49.0957C117.784 49.1085 118.091 49.1213 118.328 49.1342C118.571 49.1406 118.78 49.1438 118.952 49.1438C119.125 49.1438 119.298 49.1438 119.471 49.1438C119.791 49.1438 120.044 49.1214 120.23 49.0765C120.416 49.0252 120.547 48.929 120.624 48.7879C120.701 48.6405 120.739 48.4289 120.739 48.1532C120.739 47.9159 120.71 47.73 120.653 47.5953C120.602 47.4607 120.515 47.3613 120.393 47.2972C120.278 47.2266 120.128 47.1689 119.942 47.1241L118.568 46.749C118.088 46.6143 117.748 46.3963 117.55 46.0949C117.351 45.7936 117.252 45.3928 117.252 44.8927C117.252 44.508 117.294 44.197 117.377 43.9598C117.467 43.7226 117.601 43.5462 117.781 43.4308C117.96 43.309 118.187 43.2288 118.463 43.1904C118.738 43.1455 119.068 43.123 119.452 43.123Z" fill="white"/>
<path d="M140.319 43.2287C140.639 43.2287 140.965 43.2287 141.298 43.2287C141.631 43.2287 141.958 43.2351 142.278 43.2479C142.605 43.2543 142.915 43.2672 143.21 43.2864L143.172 44.027H140.53C140.338 44.027 140.197 44.0751 140.107 44.1712C140.018 44.2674 139.973 44.4213 139.973 44.6329V48.48C139.973 48.6916 140.018 48.8487 140.107 48.9513C140.197 49.0475 140.338 49.0956 140.53 49.0956H143.172L143.21 49.8265C142.915 49.8457 142.605 49.8586 142.278 49.865C141.958 49.8714 141.631 49.8746 141.298 49.8746C140.965 49.881 140.639 49.8842 140.319 49.8842C139.922 49.8842 139.605 49.7784 139.368 49.5668C139.137 49.3488 139.019 49.0603 139.012 48.7012V44.4117C139.019 44.0462 139.137 43.7577 139.368 43.5461C139.605 43.3345 139.922 43.2287 140.319 43.2287ZM139.185 46.0082H142.797V46.7488H139.185V46.0082Z" fill="white"/>
<path d="M150.535 43.2383V49.4995C150.535 49.7496 150.416 49.8746 150.179 49.8746H149.353C149.244 49.8746 149.158 49.8489 149.094 49.7977C149.036 49.7464 148.985 49.6726 148.94 49.5764L146.769 45.0945C146.711 44.9663 146.644 44.822 146.567 44.6617C146.49 44.495 146.433 44.3412 146.394 44.2001H146.25C146.263 44.3476 146.273 44.4982 146.279 44.6521C146.285 44.7996 146.289 44.9503 146.289 45.1042V49.8746H145.347V43.6134C145.347 43.3633 145.469 43.2383 145.712 43.2383H146.51C146.618 43.2383 146.705 43.264 146.769 43.3153C146.833 43.3665 146.887 43.4403 146.932 43.5365L149.026 47.9029C149.097 48.0376 149.171 48.1915 149.247 48.3646C149.331 48.5377 149.411 48.7076 149.488 48.8743H149.641C149.628 48.7012 149.619 48.5313 149.612 48.3646C149.606 48.1915 149.603 48.0216 149.603 47.8549V43.2383H150.535Z" fill="white"/>
<path d="M155.415 43.1518C155.901 43.1518 156.311 43.2095 156.644 43.3249C156.984 43.4403 157.256 43.6294 157.461 43.8923C157.666 44.1488 157.813 44.4982 157.903 44.9407C157.999 45.3767 158.047 45.9153 158.047 46.5565C158.047 47.1976 157.999 47.7394 157.903 48.1819C157.813 48.6179 157.666 48.9673 157.461 49.2302C157.256 49.4867 156.984 49.6726 156.644 49.788C156.311 49.9035 155.901 49.9612 155.415 49.9612C154.954 49.9612 154.525 49.9515 154.127 49.9323C153.737 49.9195 153.365 49.9002 153.013 49.8746L153.417 49.1052C153.686 49.118 153.983 49.1308 154.31 49.1436C154.643 49.1501 155.011 49.1533 155.415 49.1533C155.825 49.1533 156.148 49.0731 156.385 48.9128C156.622 48.7525 156.788 48.4864 156.884 48.1145C156.987 47.7362 157.038 47.2169 157.038 46.5565C157.038 45.896 156.987 45.3799 156.884 45.008C156.788 44.6297 156.622 44.3604 156.385 44.2001C156.148 44.0334 155.825 43.95 155.415 43.95C155.018 43.95 154.662 43.9532 154.348 43.9596C154.035 43.9661 153.727 43.9725 153.426 43.9789L153.013 43.2383C153.365 43.2127 153.737 43.1934 154.127 43.1806C154.525 43.1614 154.954 43.1518 155.415 43.1518ZM153.974 43.2383V49.8746H153.013V43.2383H153.974Z" fill="white"/>
<path d="M165.155 43.2383V47.3163C165.155 47.9639 165.075 48.4864 164.915 48.884C164.761 49.2751 164.509 49.5604 164.156 49.7399C163.804 49.9131 163.333 49.9996 162.744 49.9996C162.129 49.9996 161.639 49.9131 161.274 49.7399C160.909 49.5604 160.644 49.2751 160.477 48.884C160.317 48.4864 160.237 47.9639 160.237 47.3163V43.2383H161.198V47.3163C161.198 47.7779 161.242 48.1466 161.332 48.4223C161.428 48.6916 161.585 48.884 161.803 48.9994C162.027 49.1084 162.325 49.1629 162.696 49.1629C163.068 49.1629 163.359 49.1084 163.57 48.9994C163.788 48.884 163.945 48.6916 164.041 48.4223C164.143 48.1466 164.195 47.7779 164.195 47.3163V43.2383H165.155Z" fill="white"/>
<path d="M169.919 43.1518C170.444 43.1518 170.867 43.2095 171.187 43.3249C171.514 43.4339 171.751 43.6294 171.898 43.9116C172.045 44.1873 172.119 44.5752 172.119 45.0753C172.119 45.428 172.078 45.7229 171.994 45.9602C171.911 46.1974 171.78 46.3833 171.6 46.518C171.427 46.6526 171.191 46.7392 170.89 46.7777V46.8258C170.998 46.8514 171.107 46.9027 171.216 46.9796C171.325 47.0566 171.427 47.1624 171.524 47.297C171.62 47.4253 171.69 47.5888 171.735 47.7875L172.359 49.8746H171.341L170.765 47.8068C170.688 47.5631 170.582 47.39 170.448 47.2874C170.313 47.1848 170.137 47.1335 169.919 47.1335C169.516 47.1335 169.17 47.1335 168.882 47.1335C168.594 47.1271 168.35 47.1207 168.152 47.1143C167.96 47.1079 167.803 47.1047 167.681 47.1047L167.71 46.3352H169.9C170.214 46.3288 170.46 46.2936 170.64 46.2294C170.819 46.1589 170.947 46.0371 171.024 45.864C171.107 45.6909 171.149 45.4472 171.149 45.133C171.149 44.8188 171.107 44.5784 171.024 44.4117C170.947 44.2386 170.819 44.1199 170.64 44.0558C170.46 43.9853 170.214 43.95 169.9 43.95C169.362 43.95 168.898 43.9532 168.507 43.9596C168.117 43.9661 167.854 43.9693 167.719 43.9693L167.585 43.2383C167.828 43.2127 168.059 43.1934 168.277 43.1806C168.494 43.1678 168.731 43.1614 168.987 43.1614C169.25 43.155 169.561 43.1518 169.919 43.1518ZM168.536 43.2383V49.8746H167.585V43.2383H168.536Z" fill="white"/>
<path d="M175.395 43.2383V49.8746H174.435V43.2383H175.395Z" fill="white"/>
<path d="M183.057 43.2383V49.4995C183.057 49.7496 182.939 49.8746 182.702 49.8746H181.875C181.767 49.8746 181.68 49.8489 181.616 49.7977C181.558 49.7464 181.507 49.6726 181.462 49.5764L179.291 45.0945C179.234 44.9663 179.167 44.822 179.09 44.6617C179.013 44.495 178.955 44.3412 178.917 44.2001H178.773C178.785 44.3476 178.795 44.4982 178.801 44.6521C178.808 44.7996 178.811 44.9503 178.811 45.1042V49.8746H177.87V43.6134C177.87 43.3633 177.991 43.2383 178.235 43.2383H179.032C179.141 43.2383 179.227 43.264 179.291 43.3153C179.355 43.3665 179.41 43.4403 179.455 43.5365L181.549 47.9029C181.619 48.0376 181.693 48.1915 181.77 48.3646C181.853 48.5377 181.933 48.7076 182.01 48.8743H182.164C182.151 48.7012 182.141 48.5313 182.135 48.3646C182.128 48.1915 182.125 48.0216 182.125 47.8549V43.2383H183.057Z" fill="white"/>
<path d="M188.1 43.1133C188.337 43.1133 188.562 43.1197 188.773 43.1325C188.991 43.1453 189.199 43.1678 189.397 43.1998C189.602 43.2255 189.801 43.2672 189.993 43.3249L189.897 44.0366C189.692 44.0174 189.487 44.0045 189.282 43.9981C189.083 43.9853 188.888 43.9789 188.696 43.9789C188.504 43.9725 188.318 43.9693 188.139 43.9693C187.799 43.9693 187.511 44.0013 187.274 44.0654C187.037 44.1296 186.848 44.2546 186.708 44.4405C186.573 44.6265 186.474 44.8926 186.41 45.2388C186.346 45.5851 186.314 46.0371 186.314 46.5949C186.314 47.2297 186.355 47.733 186.439 48.1049C186.528 48.4768 186.672 48.7461 186.871 48.9128C187.076 49.0795 187.348 49.1629 187.687 49.1629C187.924 49.1629 188.139 49.1308 188.331 49.0667C188.523 49.0026 188.702 48.9192 188.869 48.8166C189.042 48.7076 189.205 48.5986 189.359 48.4896L189.484 49.0475C189.375 49.1757 189.218 49.3168 189.013 49.4706C188.814 49.6181 188.581 49.7432 188.312 49.8457C188.043 49.9483 187.739 49.9996 187.399 49.9996C186.906 49.9996 186.503 49.8778 186.189 49.6342C185.881 49.3905 185.654 49.0154 185.507 48.5089C185.366 47.9959 185.295 47.3387 185.295 46.5372C185.295 45.6652 185.385 44.9791 185.564 44.479C185.744 43.9789 186.038 43.6262 186.448 43.4211C186.858 43.2159 187.409 43.1133 188.1 43.1133ZM190.175 46.0371V49.8746H189.474L189.32 48.8936L189.234 48.682V46.0371H190.175Z" fill="white"/>
<path d="M197.366 43.1229C197.686 43.1293 198.016 43.1453 198.355 43.171C198.701 43.1966 199.044 43.2479 199.383 43.3249L199.316 44.0077C199.041 43.9949 198.73 43.9853 198.384 43.9789C198.045 43.9725 197.715 43.9693 197.395 43.9693C197.17 43.9693 196.978 43.9757 196.818 43.9885C196.658 44.0013 196.527 44.0366 196.424 44.0943C196.322 44.152 196.245 44.245 196.194 44.3732C196.149 44.5015 196.127 44.6778 196.127 44.9022C196.127 45.242 196.191 45.4825 196.319 45.6235C196.447 45.7582 196.655 45.8608 196.943 45.9313L198.278 46.2872C198.791 46.4154 199.143 46.6334 199.335 46.9412C199.527 47.2425 199.623 47.6497 199.623 48.1626C199.623 48.5473 199.578 48.8583 199.489 49.0956C199.406 49.3328 199.271 49.5155 199.085 49.6438C198.906 49.772 198.672 49.8618 198.384 49.9131C198.096 49.9644 197.753 49.99 197.356 49.99C197.138 49.99 196.85 49.9804 196.492 49.9612C196.133 49.9419 195.72 49.8874 195.252 49.7977L195.32 49.0956C195.698 49.1084 196.005 49.1212 196.242 49.134C196.485 49.1404 196.693 49.1436 196.866 49.1436C197.039 49.1436 197.212 49.1436 197.385 49.1436C197.705 49.1436 197.958 49.1212 198.144 49.0763C198.33 49.025 198.461 48.9288 198.538 48.7878C198.615 48.6403 198.653 48.4287 198.653 48.153C198.653 47.9158 198.624 47.7298 198.567 47.5952C198.515 47.4605 198.429 47.3611 198.307 47.297C198.192 47.2265 198.041 47.1688 197.856 47.1239L196.482 46.7488C196.002 46.6142 195.662 46.3962 195.464 46.0948C195.265 45.7934 195.166 45.3927 195.166 44.8926C195.166 44.5079 195.208 44.1969 195.291 43.9596C195.381 43.7224 195.515 43.5461 195.694 43.4307C195.874 43.3088 196.101 43.2287 196.376 43.1902C196.652 43.1453 196.982 43.1229 197.366 43.1229Z" fill="white"/>
<path d="M204.248 43.2383V49.8746H203.287V43.2383H204.248ZM206.361 43.2383V44.0654H201.183V43.2383H206.361Z" fill="white"/>
<path d="M210.588 43.1518C211.113 43.1518 211.535 43.2095 211.856 43.3249C212.182 43.4339 212.419 43.6294 212.566 43.9116C212.714 44.1873 212.787 44.5752 212.787 45.0753C212.787 45.428 212.746 45.7229 212.662 45.9602C212.579 46.1974 212.448 46.3833 212.269 46.518C212.096 46.6526 211.859 46.7392 211.558 46.7777V46.8258C211.667 46.8514 211.776 46.9027 211.884 46.9796C211.993 47.0566 212.096 47.1624 212.192 47.297C212.288 47.4253 212.358 47.5888 212.403 47.7875L213.028 49.8746H212.009L211.433 47.8068C211.356 47.5631 211.25 47.39 211.116 47.2874C210.981 47.1848 210.805 47.1335 210.588 47.1335C210.184 47.1335 209.838 47.1335 209.55 47.1335C209.262 47.1271 209.019 47.1207 208.82 47.1143C208.628 47.1079 208.471 47.1047 208.349 47.1047L208.378 46.3352H210.568C210.882 46.3288 211.129 46.2936 211.308 46.2294C211.487 46.1589 211.615 46.0371 211.692 45.864C211.776 45.6909 211.817 45.4472 211.817 45.133C211.817 44.8188 211.776 44.5784 211.692 44.4117C211.615 44.2386 211.487 44.1199 211.308 44.0558C211.129 43.9853 210.882 43.95 210.568 43.95C210.03 43.95 209.566 43.9532 209.175 43.9596C208.785 43.9661 208.522 43.9693 208.388 43.9693L208.253 43.2383C208.497 43.2127 208.727 43.1934 208.945 43.1806C209.163 43.1678 209.4 43.1614 209.656 43.1614C209.918 43.155 210.229 43.1518 210.588 43.1518ZM209.204 43.2383V49.8746H208.253V43.2383H209.204Z" fill="white"/>
<path d="M216.352 43.2287C216.672 43.2287 216.999 43.2287 217.332 43.2287C217.665 43.2287 217.991 43.2351 218.311 43.2479C218.638 43.2543 218.949 43.2672 219.243 43.2864L219.205 44.027H216.563C216.371 44.027 216.23 44.0751 216.14 44.1712C216.051 44.2674 216.006 44.4213 216.006 44.6329V48.48C216.006 48.6916 216.051 48.8487 216.14 48.9513C216.23 49.0475 216.371 49.0956 216.563 49.0956H219.205L219.243 49.8265C218.949 49.8457 218.638 49.8586 218.311 49.865C217.991 49.8714 217.665 49.8746 217.332 49.8746C216.999 49.881 216.672 49.8842 216.352 49.8842C215.955 49.8842 215.638 49.7784 215.401 49.5668C215.17 49.3488 215.052 49.0603 215.045 48.7012V44.4117C215.052 44.0462 215.17 43.7577 215.401 43.5461C215.638 43.3345 215.955 43.2287 216.352 43.2287ZM215.218 46.0082H218.83V46.7488H215.218V46.0082Z" fill="white"/>
<path d="M226.568 43.2383V49.4995C226.568 49.7496 226.449 49.8746 226.212 49.8746H225.386C225.277 49.8746 225.191 49.8489 225.127 49.7977C225.069 49.7464 225.018 49.6726 224.973 49.5764L222.802 45.0945C222.744 44.9663 222.677 44.822 222.6 44.6617C222.524 44.495 222.466 44.3412 222.427 44.2001H222.283C222.296 44.3476 222.306 44.4982 222.312 44.6521C222.319 44.7996 222.322 44.9503 222.322 45.1042V49.8746H221.38V43.6134C221.38 43.3633 221.502 43.2383 221.745 43.2383H222.543C222.652 43.2383 222.738 43.264 222.802 43.3153C222.866 43.3665 222.921 43.4403 222.965 43.5365L225.06 47.9029C225.13 48.0376 225.204 48.1915 225.281 48.3646C225.364 48.5377 225.444 48.7076 225.521 48.8743H225.674C225.662 48.7012 225.652 48.5313 225.646 48.3646C225.639 48.1915 225.636 48.0216 225.636 47.8549V43.2383H226.568Z" fill="white"/>
<path d="M231.611 43.1133C231.848 43.1133 232.072 43.1197 232.284 43.1325C232.501 43.1453 232.709 43.1678 232.908 43.1998C233.113 43.2255 233.311 43.2672 233.504 43.3249L233.408 44.0366C233.203 44.0174 232.998 44.0045 232.793 43.9981C232.594 43.9853 232.399 43.9789 232.207 43.9789C232.015 43.9725 231.829 43.9693 231.65 43.9693C231.31 43.9693 231.022 44.0013 230.785 44.0654C230.548 44.1296 230.359 44.2546 230.218 44.4405C230.084 44.6265 229.984 44.8926 229.92 45.2388C229.856 45.5851 229.824 46.0371 229.824 46.5949C229.824 47.2297 229.866 47.733 229.949 48.1049C230.039 48.4768 230.183 48.7461 230.382 48.9128C230.586 49.0795 230.859 49.1629 231.198 49.1629C231.435 49.1629 231.65 49.1308 231.842 49.0667C232.034 49.0026 232.213 48.9192 232.38 48.8166C232.553 48.7076 232.716 48.5986 232.87 48.4896L232.994 49.0475C232.886 49.1757 232.729 49.3168 232.524 49.4706C232.325 49.6181 232.091 49.7432 231.822 49.8457C231.554 49.9483 231.249 49.9996 230.91 49.9996C230.417 49.9996 230.013 49.8778 229.699 49.6342C229.392 49.3905 229.165 49.0154 229.017 48.5089C228.877 47.9959 228.806 47.3387 228.806 46.5372C228.806 45.6652 228.896 44.9791 229.075 44.479C229.254 43.9789 229.549 43.6262 229.959 43.4211C230.369 43.2159 230.919 43.1133 231.611 43.1133ZM233.686 46.0371V49.8746H232.985L232.831 48.8936L232.745 48.682V46.0371H233.686Z" fill="white"/>
<path d="M238.412 43.2383V49.8746H237.451V43.2383H238.412ZM240.525 43.2383V44.0654H235.348V43.2383H240.525Z" fill="white"/>
<path d="M243.378 43.2383V49.8746H242.417V43.2383H243.378ZM246.404 45.9313V46.7296H243.301V45.9313H246.404ZM247.269 43.2383V49.8746H246.298V43.2383H247.269Z" fill="white"/>
<circle cx="130.26" cy="46.6674" r="1.602" fill="white"/>
<path d="M74.9453 3.76758L63.4199 21.0918L62.7637 21.6182H68.7881L68.7627 24.8066H58.8564V21.6182L70.3809 4.29395L71.0703 3.76758H65.0146L65.04 0.579102H74.9453V3.76758ZM74.9453 21.6182V24.8066H70.0762L70.1016 21.6182H74.9453ZM63.7012 3.76758H58.8564V0.579102H63.7266L63.7012 3.76758Z" fill="white"/>
<path d="M46.2461 9.52637L40.9131 24.8008H36.8086L42.5283 8.46094L46.2461 9.52637ZM57.5928 24.8008H53.5215L47.25 6.65527L46.6807 8.28418L42.9639 7.21777L45.2793 0.606445H49.1865L57.5928 24.8008ZM50.3691 19.7715H44.0977L45.0166 17.1084H49.417L50.3691 19.7715Z" fill="white"/>
<path d="M24.3829 21.8154H27.1856V24.8066H20.377V0.579102H24.3829V21.8154ZM35.5137 21.8154V24.8066H28.4991V21.8154H35.5137Z" fill="white"/>
<path d="M117.24 0.483398H121.246V24.7111H117.24V0.483398ZM131.359 13.7971H122.592V11.1015H131.359V13.7971ZM122.592 21.7196H132.377V24.7111H122.592V21.7196ZM132.377 0.483398V3.47487H122.592V0.483398H132.377Z" fill="white"/>
<path d="M98.9863 0H102.926V24.2277H98.9863V0ZM115.403 24.2277H111.233L106.669 15.4505C106.604 15.4505 106.527 15.4614 106.44 15.4833C106.374 15.4833 106.265 15.4833 106.111 15.4833C105.958 15.4833 105.728 15.4833 105.422 15.4833C105.137 15.4833 104.754 15.4833 104.273 15.4833V12.5905H106.505C106.987 12.5905 107.468 12.5138 107.95 12.3604C108.432 12.1851 108.869 11.9111 109.263 11.5385C109.657 11.166 109.975 10.651 110.216 9.9935C110.456 9.31412 110.577 8.48132 110.577 7.49512C110.577 7.10064 110.522 6.65137 110.413 6.14732C110.303 5.62134 110.073 5.12824 109.723 4.66802C109.395 4.18587 108.924 3.79139 108.311 3.48458C107.698 3.15584 106.888 2.99147 105.881 2.99147H104.273V0H105.947C106.976 0 107.994 0.164367 109.001 0.4931C110.008 0.821834 110.905 1.31493 111.693 1.9724C112.503 2.62987 113.149 3.42979 113.63 4.37216C114.134 5.29261 114.385 6.3336 114.385 7.49512C114.385 9.24837 113.98 10.7386 113.171 11.9659C112.361 13.1932 111.266 14.1027 109.887 14.6944L115.403 24.2277Z" fill="white"/>
<path d="M76.623 12.4785C76.623 10.5281 76.8529 8.80769 77.3126 7.31743C77.7941 5.80525 78.4508 4.53415 79.2826 3.50412C80.1363 2.45217 81.1322 1.65225 82.2705 1.10436C83.4306 0.53456 84.6892 0.205826 86.0464 0.118164V3.4055C85.3021 3.49316 84.6017 3.72327 83.945 4.09584C83.2883 4.4684 82.7192 5.01629 82.2376 5.73951C81.7561 6.46272 81.373 7.38317 81.0885 8.50087C80.8039 9.61856 80.6507 10.9445 80.6288 12.4785C80.6507 14.0345 80.8039 15.3714 81.0885 16.4891C81.373 17.5849 81.7561 18.5053 82.2376 19.2505C82.7411 19.9956 83.3212 20.5654 83.9778 20.9599C84.6345 21.3324 85.324 21.5516 86.0464 21.6173V24.8718C84.7111 24.7841 83.4634 24.4664 82.3033 23.9185C81.1432 23.3487 80.1363 22.5487 79.2826 21.5187C78.4508 20.4668 77.7941 19.1847 77.3126 17.6725C76.8529 16.1604 76.623 14.429 76.623 12.4785ZM87.3597 0.118164C88.695 0.183911 89.9317 0.501687 91.07 1.07149C92.2301 1.6413 93.226 2.45217 94.0578 3.50412C94.9115 4.53415 95.5791 5.80525 96.0607 7.31743C96.5423 8.80769 96.7831 10.5281 96.7831 12.4785C96.7831 14.429 96.5423 16.1604 96.0607 17.6725C95.5791 19.1847 94.9115 20.4668 94.0578 21.5187C93.226 22.5487 92.241 23.3487 91.1028 23.9185C89.9645 24.4664 88.7169 24.7841 87.3597 24.8718V21.6173C88.104 21.5297 88.8044 21.2996 89.4611 20.927C90.1178 20.5325 90.6869 19.9737 91.1685 19.2505C91.65 18.5053 92.0331 17.5849 92.3176 16.4891C92.6022 15.3714 92.7554 14.0345 92.7773 12.4785C92.7554 10.9225 92.6022 9.59665 92.3176 8.50087C92.0331 7.38317 91.6391 6.46272 91.1356 5.73951C90.6541 4.99438 90.0849 4.43553 89.4283 4.06297C88.7716 3.66849 88.0821 3.43837 87.3597 3.37263V0.118164Z" fill="white"/>
<path d="M14.0857 5.15039C13.5604 4.51484 12.9584 4.05461 12.2799 3.76971C11.6013 3.4848 10.9009 3.34235 10.1785 3.34235H10.0472V0.0878906H10.08C11.3934 0.0878906 12.6192 0.307046 13.7574 0.745358C14.8956 1.18367 15.9135 1.84114 16.811 2.71776L14.0857 5.15039ZM0 12.4811C0 10.5964 0.218893 8.93082 0.656678 7.4844C1.09446 6.01605 1.69642 4.77782 2.46254 3.76971C3.22867 2.73967 4.14802 1.9288 5.22059 1.33708C6.29316 0.745358 7.45329 0.372793 8.70098 0.219384V3.50672C8.0443 3.68204 7.4314 3.9779 6.86228 4.3943C6.31505 4.8107 5.82254 5.39146 5.38476 6.13659C4.96886 6.8598 4.64052 7.74738 4.39974 8.79933C4.15896 9.82936 4.02762 11.0566 4.00573 12.4811C4.02762 13.9057 4.15896 15.1548 4.39974 16.2287C4.64052 17.3026 4.96886 18.234 5.38476 19.0229C5.82254 19.79 6.31505 20.4036 6.86228 20.8639C7.4314 21.3241 8.0443 21.6419 8.70098 21.8172V24.8087C7.45329 24.6552 6.29316 24.2827 5.22059 23.691C4.14802 23.0773 3.22867 22.2555 2.46254 21.2255C1.69642 20.1954 1.09446 18.9572 0.656678 17.5108C0.218893 16.0424 0 14.3659 0 12.4811ZM18.0586 12.2182V21.5871C17.5552 22.2226 16.9861 22.7486 16.3513 23.165C15.7384 23.5595 15.0817 23.8882 14.3812 24.1512C13.7027 24.4142 12.9913 24.6005 12.247 24.71C11.5247 24.8196 10.8024 24.8744 10.08 24.8744H10.0472V21.9815C10.3098 21.9815 10.6272 21.9706 10.9994 21.9487C11.3934 21.9048 11.7874 21.8501 12.1814 21.7843C12.5973 21.6966 12.9803 21.5871 13.3306 21.4556C13.7027 21.3241 13.9763 21.1378 14.1514 20.8967V14.9138H10.0472V12.2182H18.0586Z" fill="white"/>
<path d="M196.729 9.53223L191.393 24.8125H187.289L193.012 8.46582L196.729 9.53223ZM208.073 24.8125H204.002L197.73 6.66699L197.163 8.28906L193.446 7.22266L195.76 0.618164H199.667L208.073 24.8125ZM200.85 19.7832H194.578L195.497 17.1201H199.897L200.85 19.7832Z" fill="white"/>
<path d="M219.622 24.8066H215.649V20.7012H219.622V24.8066ZM226.846 3.27441H219.622V19.3867H215.649V3.27441H208.426V0.579102H226.846V3.27441Z" fill="white"/>
<path d="M233.852 24.8066H229.846V5.90625H233.852V24.8066ZM233.852 4.5918H229.846V0.579102H233.852V4.5918Z" fill="white"/>
<path d="M160.741 5.14779C160.238 4.57798 159.701 4.15063 159.132 3.86573C158.563 3.58082 157.95 3.41646 157.293 3.37263V0.118164C159.745 0.227742 161.803 1.09341 163.466 2.71516L160.741 5.14779ZM157.293 21.6173C157.95 21.5516 158.563 21.3763 159.132 21.0914C159.723 20.8065 160.259 20.3901 160.741 19.8422L163.466 22.2419C162.634 23.0528 161.704 23.6774 160.675 24.1157C159.647 24.554 158.519 24.8061 157.293 24.8718V21.6173ZM146.655 12.4785C146.655 10.5281 146.885 8.80769 147.345 7.31743C147.826 5.82717 148.483 4.56702 149.315 3.53699C150.147 2.50696 151.121 1.70704 152.237 1.13724C153.375 0.567433 154.612 0.227742 155.947 0.118164V3.4055C155.225 3.51508 154.546 3.76711 153.912 4.16159C153.277 4.53415 152.719 5.08204 152.237 5.80525C151.755 6.52847 151.372 7.44892 151.088 8.56662C150.825 9.66239 150.683 10.9664 150.661 12.4785C150.683 14.0126 150.825 15.3276 151.088 16.4233C151.372 17.5191 151.755 18.4396 152.237 19.1847C152.719 19.9298 153.277 20.4996 153.912 20.8941C154.568 21.2886 155.247 21.5297 155.947 21.6173V24.8389C154.612 24.7513 153.375 24.4225 152.237 23.8527C151.121 23.2829 150.147 22.483 149.315 21.453C148.483 20.4229 147.826 19.1628 147.345 17.6725C146.885 16.1604 146.655 14.429 146.655 12.4785Z" fill="white"/>
<path d="M165.801 12.4785C165.801 10.5281 166.031 8.80769 166.49 7.31743C166.972 5.80525 167.629 4.53415 168.46 3.50412C169.314 2.45217 170.31 1.65225 171.448 1.10436C172.608 0.53456 173.867 0.205826 175.224 0.118164V3.4055C174.48 3.49316 173.779 3.72327 173.123 4.09584C172.466 4.4684 171.897 5.01629 171.415 5.73951C170.934 6.46272 170.551 7.38317 170.266 8.50087C169.982 9.61856 169.828 10.9445 169.807 12.4785C169.828 14.0345 169.982 15.3714 170.266 16.4891C170.551 17.5849 170.934 18.5053 171.415 19.2505C171.919 19.9956 172.499 20.5654 173.156 20.9599C173.812 21.3324 174.502 21.5516 175.224 21.6173V24.8718C173.889 24.7841 172.641 24.4664 171.481 23.9185C170.321 23.3487 169.314 22.5487 168.46 21.5187C167.629 20.4668 166.972 19.1847 166.49 17.6725C166.031 16.1604 165.801 14.429 165.801 12.4785ZM176.537 0.118164C177.873 0.183911 179.109 0.501687 180.248 1.07149C181.408 1.6413 182.404 2.45217 183.236 3.50412C184.089 4.53415 184.757 5.80525 185.238 7.31743C185.72 8.80769 185.961 10.5281 185.961 12.4785C185.961 14.429 185.72 16.1604 185.238 17.6725C184.757 19.1847 184.089 20.4668 183.236 21.5187C182.404 22.5487 181.419 23.3487 180.281 23.9185C179.142 24.4664 177.895 24.7841 176.537 24.8718V21.6173C177.282 21.5297 177.982 21.2996 178.639 20.927C179.296 20.5325 179.865 19.9737 180.346 19.2505C180.828 18.5053 181.211 17.5849 181.495 16.4891C181.78 15.3714 181.933 14.0345 181.955 12.4785C181.933 10.9225 181.78 9.59665 181.495 8.50087C181.211 7.38317 180.817 6.46272 180.313 5.73951C179.832 4.99438 179.263 4.43553 178.606 4.06297C177.949 3.66849 177.26 3.43837 176.537 3.37263V0.118164Z" fill="white"/>
<path d="M251.837 0.483398H255.842V24.7111H251.837L243.694 10.3783V2.81741L251.837 17.1831V0.483398ZM238.342 24.7111V0.483398H242.348V24.7111H238.342Z" fill="white"/>
<path d="M272.813 5.15039C272.288 4.51484 271.686 4.05461 271.007 3.76971C270.329 3.4848 269.628 3.34235 268.906 3.34235H268.775V0.0878906H268.808C270.121 0.0878906 271.347 0.307046 272.485 0.745358C273.623 1.18367 274.641 1.84114 275.538 2.71776L272.813 5.15039ZM258.728 12.4811C258.728 10.5964 258.946 8.93082 259.384 7.4844C259.822 6.01605 260.424 4.77782 261.19 3.76971C261.956 2.73967 262.876 1.9288 263.948 1.33708C265.021 0.745358 266.181 0.372793 267.429 0.219384V3.50672C266.772 3.68204 266.159 3.9779 265.59 4.3943C265.043 4.8107 264.55 5.39146 264.112 6.13659C263.696 6.8598 263.368 7.74738 263.127 8.79933C262.886 9.82936 262.755 11.0566 262.733 12.4811C262.755 13.9057 262.886 15.1548 263.127 16.2287C263.368 17.3026 263.696 18.234 264.112 19.0229C264.55 19.79 265.043 20.4036 265.59 20.8639C266.159 21.3241 266.772 21.6419 267.429 21.8172V24.8087C266.181 24.6552 265.021 24.2827 263.948 23.691C262.876 23.0773 261.956 22.2555 261.19 21.2255C260.424 20.1954 259.822 18.9572 259.384 17.5108C258.946 16.0424 258.728 14.3659 258.728 12.4811ZM276.786 12.2182V21.5871C276.283 22.2226 275.714 22.7486 275.079 23.165C274.466 23.5595 273.809 23.8882 273.109 24.1512C272.43 24.4142 271.719 24.6005 270.975 24.71C270.252 24.8196 269.53 24.8744 268.808 24.8744H268.775V21.9815C269.037 21.9815 269.355 21.9706 269.727 21.9487C270.121 21.9048 270.515 21.8501 270.909 21.7843C271.325 21.6966 271.708 21.5871 272.058 21.4556C272.43 21.3241 272.704 21.1378 272.879 20.8967V14.9138H268.775V12.2182H276.786Z" fill="white"/>
<path d="M247.936 32.2422C248.378 32.2422 248.737 32.601 248.737 33.0437C248.737 33.4863 248.378 33.8452 247.936 33.8452H30.1942C29.7521 33.8452 29.3936 33.4863 29.3936 33.0437C29.3936 32.601 29.7521 32.2422 30.1942 32.2422H247.936Z" fill="white"/>
</svg>
